Coordinates
version=1
nRows=11
nColumns=36
inDegrees=yes

Units are S.I. units (second, meters, Newtons, ...)
If the header above contains a line with 'inDegrees', this indicates whether rotational values are in degrees (yes) or radians (no).

endheader
time	pelvis_tilt	pelvis_list	pelvis_rotation	pelvis_tx	pelvis_ty	pelvis_tz	hip_flexion_r	hip_adduction_r	hip_rotation_r	knee_angle_r	knee_angle_r_beta	ankle_angle_r	subtalar_angle_r	mtp_angle_r	hip_flexion_l	hip_adduction_l	hip_rotation_l	knee_angle_l	knee_angle_l_beta	ankle_angle_l	subtalar_angle_l	mtp_angle_l	lumbar_extension	lumbar_bending	lumbar_rotation	arm_flex_r	arm_add_r	arm_rot_r	elbow_flex_r	pro_sup_r	arm_flex_l	arm_add_l	arm_rot_l	elbow_flex_l	pro_sup_l
     29.78333330	      1.92072421	     -1.10434106	     -0.01517323	      0.77410818	      0.81300164	      0.71370834	     22.83640948	      0.68842328	      0.13211746	     16.08258334	      0.28069403	     -2.47768825	    -13.47038374	     -7.49999987	     -9.35003564	      1.71974961	     11.08787792	      7.21954363	      0.12600481	     15.26067228	     -7.75511508	     -7.49999987	    -10.05465696	      3.12588686	     -6.19218717	     -0.07428118	    -12.07614968	     -6.28595764	     14.85533379	     99.48536017	     19.58179280	    -16.13113653	      9.42316308	     20.23770002	     93.74638823
     29.80000000	      1.89671318	     -0.99633117	      0.50459786	      0.77456048	      0.80934090	      0.71361321	     22.51037725	      0.30986276	      1.03265496	      9.02313996	      0.15748350	     -2.61633795	    -12.38453783	     -7.49999987	    -11.17368848	      1.69299426	     11.53716047	      7.01457109	      0.12242736	     16.10615990	     -7.32217661	     -7.49999987	     -9.86046843	      3.05248670	     -7.46062813	     -0.63554860	    -12.17094432	     -7.05145984	     13.79339987	     98.82706874	     20.72244827	    -16.76618295	      9.06585652	     21.80271635	     92.92957540
     29.81666670	      1.47931423	     -0.64671760	      0.93105645	      0.77496401	      0.80649934	      0.71326657	     22.65896881	     -0.41649561	      1.95059523	      2.77003073	      0.04834616	     -1.95384863	    -10.71095448	     -7.49999987	    -12.58600270	      1.88926498	     12.21785636	      6.98382847	      0.12189080	     16.61537729	     -7.03383750	     -7.49999987	     -9.18114535	      2.79829662	     -8.86076185	     -0.99461089	    -12.19161868	     -9.41501421	     12.14435413	     98.75491138	     20.76122290	    -17.65037523	      8.54984868	     24.26262318	     92.40198891
     29.83333330	      0.05631163	      0.30171306	      0.82388682	      0.77449188	      0.80344168	      0.71369206	     25.35916011	     -1.55923733	      2.89786387	      0.46223072	      0.00806745	      0.86805983	     -8.26762963	     -7.49999987	    -12.58590022	      2.83562105	     12.52978605	      7.54625666	      0.13170702	     17.01205042	     -7.18241468	     -7.49999987	     -7.34307914	      1.64299975	     -9.31875224	     -1.87178360	    -12.17903460	    -11.53331445	     10.70958946	     99.37142009	     21.01995022	    -18.21319505	      7.92456533	     25.86443698	     92.89475551
     29.85000000	     -1.43242427	      1.16787674	      0.69461284	      0.77458095	      0.80031071	      0.71435402	     28.40079616	     -2.44585057	      3.60336784	      0.25587439	      0.00446585	      3.47261220	     -6.43690593	     -7.49999987	    -12.23242416	      3.73117436	     12.54837698	      8.49840684	      0.14832518	     17.70897366	     -7.46521768	     -7.49999987	     -5.47611655	      0.58265390	     -9.10291621	     -3.03232224	    -12.42828905	    -12.60218131	      9.59928687	     99.51891551	     21.54625000	    -18.42422693	      7.91688218	     27.31652914	     93.15807183
     29.86666670	     -1.64222533	      1.28025236	      1.03270180	      0.77697951	      0.79790198	      0.71533013	     29.08720888	     -2.63089040	      3.89096291	      0.22818605	      0.00398260	      3.98593626	     -6.23111247	     -7.49999987	    -13.19013930	      3.65494385	     12.18760899	      9.38624154	      0.16382082	     18.15147188	     -7.69672127	     -7.49999987	     -5.00670032	      0.46131379	     -9.71768621	     -3.83281261	    -12.80747207	    -12.76482125	      9.55996530	     99.30491048	     22.10359511	    -18.55009310	      7.86604276	     27.83805139	     93.01819114
     29.88333330	     -1.40441975	      0.59368855	      1.84582820	      0.78205646	      0.79601274	      0.71662537	     28.24356472	     -2.06416168	      2.09682162	      0.30386001	      0.00530336	      4.22151758	     -4.89551865	     -7.49999987	    -14.16896920	      2.61706202	     11.64378155	     11.20665164	      0.19559297	     19.34252337	     -7.15191017	     -7.49999987	     -5.07387318	      1.36928123	    -10.48573739	     -3.86141151	    -13.03161953	    -16.25060993	      7.50664417	     99.31291227	     21.78163537	    -18.48628704	      7.68729245	     30.29395477	     93.49089000
     29.90000000	     -1.05271972	     -0.69038178	      2.84329891	      0.78849907	      0.79573321	      0.71798300	     26.58965611	     -0.72583336	      0.37977942	      0.71316651	      0.01244710	      1.98377279	     -5.82540590	     -7.49999987	    -15.24139433	      0.79475067	     11.03390663	     13.04555624	      0.22768791	     18.75790356	     -7.33775740	     -7.49999987	     -4.86629113	      2.99009794	    -11.22148584	     -4.84047314	    -13.63926997	    -16.78828374	      7.17043218	     99.34108802	     21.54961194	    -17.82330274	      7.57970141	     30.66696855	     93.50478371
     29.91666670	      0.12510308	     -1.92897393	      3.50870901	      0.79311100	      0.79760887	      0.71939425	     24.65082891	      0.91511170	     -1.03773618	      2.89050184	      0.05044877	     -0.39025999	     -7.37096471	     -7.49999987	    -17.05857074	     -1.03500251	     10.15880666	     14.95592254	      0.26103009	     17.08638740	     -7.42709338	     -7.49999987	     -5.82740898	      4.56124953	    -12.25188378	     -4.62800430	    -13.82266114	    -25.06675857	      6.71510901	    103.93488709	     20.47863536	    -17.34888816	      4.58983540	     32.29442829	     95.63261701
     29.93333330	      0.48027102	     -2.88304556	      3.62514858	      0.79744187	      0.79916685	      0.72108489	     24.32321931	      2.34187390	     -2.19178114	      6.43950008	      0.11239048	     -1.83857563	     -7.89647045	     -7.49999987	    -17.57613125	     -2.36108611	      8.95801483	     17.57073087	      0.30666711	     14.41716734	     -7.70087876	     -7.49999987	     -5.74069399	      5.70252992	    -12.33128682	     -5.04055373	    -14.44291107	    -24.63001996	      6.15538642	    103.08881434	     19.74759840	    -16.82498374	      4.36303330	     32.60144838	     94.55595470
     29.95000000	      0.98955579	     -3.74639599	      3.47755473	      0.80326294	      0.80075027	      0.72358161	     23.76746952	      3.72584470	     -2.87151793	      9.72189985	      0.16967916	     -2.64998090	     -8.19101964	     -7.49999987	    -17.71590121	     -3.59207102	      7.31794577	     21.03342574	      0.36710253	     10.79842435	     -7.52276337	     -7.49999987	     -5.86503746	      6.75103283	    -12.19992402	     -5.50256284	    -14.91756112	    -24.68411492	      6.51008293	    102.80756320	     18.87849663	    -16.30941668	      4.44375803	     32.59943840	     94.38181849
